<svg width="24" height="24" viewBox="0 0 24 24" fill="none" xmlns="http://www.w3.org/2000/svg">
<circle cx="11.6263" cy="11.6067" r="11.1067" transform="rotate(-90 11.6263 11.6067)" fill="white" stroke="#00C65E"/>
<path fill-rule="evenodd" clip-rule="evenodd" d="M14.5477 12.1913L9.87426 16.8649C9.5516 17.1876 9.02844 17.1876 8.70578 16.8649C8.38311 16.5423 8.38313 16.0191 8.70579 15.6965L12.7951 11.6071L8.70537 7.51742C8.38271 7.19475 8.38272 6.6716 8.70538 6.34894C9.02804 6.02627 9.5512 6.02626 9.87386 6.34893L14.5287 11.0038C14.5353 11.0099 14.5414 11.0164 14.5477 11.0228C14.8297 11.3051 14.8652 11.7412 14.6536 12.0617C14.6233 12.1075 14.5881 12.1509 14.5477 12.1913Z" fill="#00C65E"/>
</svg>
