<svg width="17" height="14" viewBox="0 0 17 14" fill="none" xmlns="http://www.w3.org/2000/svg">
<g clip-path="url(#clip0_11617_1998)">
<path d="M7.95639 2.37161L8.29009 2.87804L8.62422 2.3719C9.87742 0.473542 11.6294 0.0948945 13.0509 0.63139C14.4953 1.17655 15.6696 2.69253 15.6696 4.74398C15.6696 5.45358 15.2853 6.32286 14.6209 7.27687C13.9651 8.21854 13.0763 9.18711 12.1545 10.0844C11.2345 10.98 10.2917 11.795 9.53402 12.4306C9.26185 12.6589 9.01493 12.863 8.80078 13.0399C8.71643 13.1096 8.63716 13.1751 8.56344 13.2362C8.46272 13.3197 8.36974 13.3972 8.28792 13.4666C8.20168 13.3955 8.10344 13.3165 7.99731 13.2317C7.89077 13.1465 7.77408 13.0539 7.64771 12.9536C7.44979 12.7965 7.22814 12.6206 6.98469 12.4251C6.19238 11.7891 5.20356 10.9737 4.23745 10.0777C3.26943 9.17999 2.33491 8.21105 1.64523 7.26916C0.945605 6.31368 0.544043 5.44728 0.544043 4.74398C0.544043 2.69125 1.79598 1.16897 3.34062 0.621516C4.86843 0.0800294 6.71146 0.482269 7.95639 2.37161Z" stroke="#00C65E" stroke-width="0.8"/>
</g>
<defs>
<clipPath id="clip0_11617_1998">
<rect width="15.9256" height="14" fill="white" transform="translate(0.144043)"/>
</clipPath>
</defs>
</svg>
