<svg width="17" height="14" viewBox="0 0 17 14" fill="none" xmlns="http://www.w3.org/2000/svg">
<path d="M7.66413 2.56419L8.28981 3.51374L8.91631 2.56472C10.0853 0.79398 11.6685 0.483761 12.9273 0.958844C14.2291 1.45017 15.3196 2.83121 15.3196 4.74398C15.3196 5.34291 14.9875 6.13803 14.3337 7.07685C13.696 7.99252 12.8248 8.94346 11.9104 9.83362C10.9993 10.7205 10.0639 11.5293 9.30908 12.1625C9.03795 12.3899 8.79266 12.5926 8.57879 12.7693C8.49418 12.8392 8.41448 12.9051 8.34005 12.9668C8.3213 12.9823 8.3027 12.9978 8.28429 13.0131C8.26168 12.9949 8.23882 12.9766 8.2158 12.9582C8.10716 12.8714 7.98981 12.7783 7.86322 12.6778C7.66639 12.5216 7.44723 12.3476 7.2038 12.1522C6.41401 11.5182 5.43261 10.7088 4.47545 9.82112C3.5147 8.9301 2.59841 7.97847 1.92762 7.06238C1.23818 6.12083 0.894043 5.3311 0.894043 4.74398C0.894043 2.84357 2.04871 1.45073 3.45754 0.951409C4.83481 0.463275 6.50848 0.810343 7.66413 2.56419Z" fill="#00C65E" stroke="#00C65E" stroke-width="1.5"/>
</svg>
