<svg width="19" height="19" viewBox="0 0 19 19" fill="none" xmlns="http://www.w3.org/2000/svg">
<circle cx="9.95703" cy="9.5" r="8.11678" fill="white" stroke="white" stroke-width="1.76645"/>
<path fill-rule="evenodd" clip-rule="evenodd" d="M9.95677 4.89722C9.6461 4.89722 9.39426 5.14906 9.39426 5.45972V8.93745H5.91602C5.60536 8.93745 5.35352 9.18929 5.35352 9.49995C5.35352 9.81061 5.60536 10.0624 5.91602 10.0624H9.39426V13.5404C9.39426 13.8511 9.6461 14.1029 9.95677 14.1029C10.2674 14.1029 10.5193 13.8511 10.5193 13.5404V10.0624H13.9967C14.3074 10.0624 14.5592 9.81061 14.5592 9.49995C14.5592 9.18929 14.3074 8.93745 13.9967 8.93745H10.5193V5.45972C10.5193 5.14906 10.2674 4.89722 9.95677 4.89722Z" fill="#00C65E"/>
</svg>
