<svg width="14" height="16" viewBox="0 0 14 16" fill="none" xmlns="http://www.w3.org/2000/svg">
<path fill-rule="evenodd" clip-rule="evenodd" d="M0.000270024 1.87812C0.000270024 1.16015 0.5823 0.578125 1.30027 0.578125H12.7003C13.4182 0.578125 14.0003 1.16015 14.0003 1.87812C14.0003 2.59609 13.4182 3.17812 12.7003 3.17812H1.30027C0.582299 3.17812 0.000270024 2.59609 0.000270024 1.87812ZM0 8.07539C0 7.35742 0.58203 6.77539 1.3 6.77539H12.7C13.418 6.77539 14 7.35742 14 8.07539C14 8.79336 13.418 9.37539 12.7 9.37539H1.3C0.582029 9.37539 0 8.79336 0 8.07539ZM1.3 12.9727C0.58203 12.9727 0 13.5547 0 14.2727C0 14.9906 0.58203 15.5727 1.3 15.5727H6.7C7.41797 15.5727 8 14.9906 8 14.2727C8 13.5547 7.41797 12.9727 6.7 12.9727H1.3Z" fill="#363A45"/>
</svg>
