<svg width="14" height="18" viewBox="0 0 14 18" fill="none" xmlns="http://www.w3.org/2000/svg">
<rect x="0.350488" y="0.928125" width="13.3" height="16.3" rx="0.434713" fill="white" stroke="#00C65E" stroke-width="0.7"/>
<path d="M8.6699 15.4954V14.7382H8.13281V14.1927H8.6699V13.6665H8.13281V12.9863H8.6699V10.9136H10.0482C10.6306 10.9136 11.0577 11.0312 11.3295 11.2665C11.6056 11.4975 11.7436 11.8269 11.7436 12.2547C11.7436 12.52 11.6832 12.7596 11.5624 12.9735C11.4416 13.1874 11.2497 13.3564 10.9865 13.4804C10.7277 13.6045 10.3869 13.6665 9.9641 13.6665H9.49819V14.1927H10.5206V14.7382H9.49819V15.4954H8.6699ZM9.87351 12.9863C10.1884 12.9863 10.4386 12.9328 10.6241 12.8259C10.8096 12.7189 10.9024 12.5371 10.9024 12.2804C10.9024 12.0494 10.8269 11.8783 10.6759 11.767C10.5292 11.6515 10.3027 11.5938 9.99646 11.5938H9.49819V12.9863H9.87351Z" fill="#00C65E"/>
<rect x="2.55908" y="3.28027" width="8.8824" height="1.06952" rx="0.534759" fill="#00C65E"/>
<rect x="2.55908" y="5.91162" width="8.8824" height="1.06952" rx="0.534759" fill="#00C65E"/>
<rect x="2.55908" y="8.54297" width="6.70927" height="1.06952" rx="0.534759" fill="#00C65E"/>
<rect x="2.55908" y="11.1748" width="4.7258" height="1.06952" rx="0.534759" fill="#00C65E"/>
<rect x="2.55908" y="13.8057" width="2.52137" height="1.06952" rx="0.534759" fill="#00C65E"/>
</svg>
