<svg width="25" height="18" viewBox="0 0 25 18" fill="none" xmlns="http://www.w3.org/2000/svg">
<path d="M8.15015 6.9332L8.4998 6.94904L8.4998 6.94894L8.49982 6.94854L8.49989 6.94698L8.50017 6.9408L8.50126 6.91663L8.50544 6.82422L8.52051 6.4886C8.53307 6.2075 8.55007 5.82457 8.56779 5.4173C8.60318 4.6041 8.64161 3.68984 8.65322 3.29784C8.66467 2.91103 8.69909 2.45189 8.81365 2.10329C8.87071 1.92965 8.93828 1.81367 9.00635 1.74669C9.06344 1.69051 9.12575 1.66198 9.22214 1.66744C9.22872 1.66781 9.23531 1.668 9.2419 1.668C9.32275 1.668 9.37809 1.68466 9.42292 1.71313C9.46929 1.74258 9.53096 1.80164 9.59523 1.92918C9.73058 2.19773 9.84218 2.6976 9.87593 3.58534C9.91003 4.48248 9.93918 5.32221 9.9598 5.9377C9.97011 6.24543 9.97829 6.49706 9.98388 6.67174L9.99029 6.87342L9.99194 6.92608L9.99236 6.93951L9.99246 6.94289L9.99249 6.94374L9.9925 6.94395L9.9925 6.944L10.3423 6.9332L9.9925 6.94401C9.99833 7.13268 10.1527 7.28273 10.3415 7.2832C10.5302 7.28366 10.6853 7.13437 10.6921 6.94573L10.772 4.71689C10.8057 4.00252 10.9338 3.67715 11.0455 3.53255C11.1327 3.41964 11.2316 3.38847 11.3954 3.38847C11.4619 3.38847 11.5005 3.40034 11.5302 3.41888C11.5608 3.43797 11.6148 3.48469 11.6749 3.61059C11.8027 3.87795 11.9153 4.4088 11.939 5.4268L11.9221 11.5598C11.9197 11.6108 11.9174 11.6612 11.9151 11.7112C11.883 12.4148 11.8557 13.014 11.7888 13.5367C11.7171 14.0964 11.6031 14.5391 11.4078 14.8995C11.4046 14.9053 11.4017 14.9112 11.3988 14.9172C11.3463 15.0287 11.2742 15.1882 11.1904 15.3737C10.9635 15.8756 10.6506 16.568 10.406 17.0167L5.13696 17.0167C4.5894 16.0033 4.01349 15.0609 3.64052 14.4988C3.15384 13.7023 2.36812 12.0189 1.69515 10.5109C1.36 9.75986 1.05597 9.0596 0.835691 8.54702C0.725571 8.29077 0.636426 8.08153 0.57484 7.93641L0.503965 7.76901L0.485579 7.72541L0.48092 7.71434L0.479853 7.71181L0.479767 7.7116L0.479757 7.71158L0.479655 7.71133L0.479581 7.71116L0.479487 7.71091L0.479472 7.7109L0.479404 7.71074L0.476765 7.70408C0.474122 7.69734 0.469923 7.68639 0.464627 7.67175C0.454001 7.64239 0.439161 7.59875 0.423661 7.54502C0.392109 7.43563 0.360517 7.29359 0.352447 7.14924C0.344225 7.00219 0.361857 6.87768 0.405461 6.78545C0.443424 6.70515 0.508497 6.63125 0.646682 6.58285C0.732821 6.55268 0.827658 6.55875 0.94515 6.61176C1.06796 6.66717 1.19663 6.76659 1.32007 6.8905C1.44139 7.01227 1.54424 7.14407 1.6176 7.24735C1.6539 7.29846 1.6821 7.34134 1.70083 7.37078C1.71018 7.38547 1.71712 7.39674 1.72147 7.40391L1.72604 7.4115L1.72619 7.41175L3.22839 10.0476C3.30701 10.1856 3.46864 10.2533 3.62212 10.2126C3.7756 10.172 3.88248 10.0331 3.88248 9.87432L3.88248 4.36203C3.88248 3.68819 3.95178 3.20001 4.06255 2.89113C4.17201 2.58595 4.27661 2.55941 4.30539 2.55685C4.39562 2.55862 4.47155 2.59487 4.55553 2.72219C4.65197 2.8684 4.73452 3.10488 4.80067 3.4397L5.28673 6.98079C5.3115 7.16121 5.47047 7.29249 5.65231 7.28269C5.83415 7.2729 5.9781 7.1253 5.98334 6.94327L5.63348 6.9332L5.98334 6.94325L5.98334 6.94317L5.98335 6.94283L5.98339 6.94143L5.98355 6.9358L5.98421 6.91353L5.98683 6.82747C5.98914 6.7526 5.99259 6.64401 5.99711 6.50934C6.00614 6.23996 6.01946 5.8664 6.03659 5.44971C6.07094 4.61418 6.12031 3.6127 6.18066 2.92871C6.24242 2.22881 6.31472 1.69917 6.45403 1.34704C6.52163 1.17616 6.59495 1.07459 6.66615 1.01603C6.73037 0.963206 6.81319 0.928153 6.94343 0.928153C7.08793 0.928153 7.1742 0.961892 7.23272 1.00363C7.29419 1.04747 7.35554 1.12207 7.4117 1.25262C7.53126 1.53051 7.58567 1.95541 7.63139 2.54199C7.67558 3.1088 7.71783 4.20506 7.74912 5.16754C7.76471 5.64706 7.7775 6.0907 7.78639 6.41449C7.79083 6.57637 7.7943 6.70826 7.79666 6.79964L7.79934 6.90502L7.80003 6.93247L7.8002 6.93945L7.80024 6.9412L7.80026 6.94163L7.80026 6.94174L8.15015 6.9332ZM8.15015 6.9332L8.49979 6.94907C8.49124 7.13742 8.33503 7.28515 8.1465 7.28318C7.95797 7.28121 7.80487 7.13025 7.80026 6.94177L8.15015 6.9332Z" fill="white" stroke="#363A45" stroke-width="0.7" stroke-linejoin="round"/>
<path d="M16.8508 6.9332L16.5012 6.94904L16.5012 6.94894L16.5012 6.94854L16.5011 6.94698L16.5008 6.9408L16.4997 6.91663L16.4955 6.82422L16.4805 6.4886C16.4679 6.2075 16.4509 5.82457 16.4332 5.4173C16.3978 4.6041 16.3594 3.68984 16.3478 3.29784C16.3363 2.91103 16.3019 2.45189 16.1873 2.10329C16.1303 1.92965 16.0627 1.81367 15.9946 1.74669C15.9375 1.69051 15.8752 1.66198 15.7788 1.66744C15.7723 1.66781 15.7657 1.668 15.7591 1.668C15.6782 1.668 15.6229 1.68466 15.5781 1.71313C15.5317 1.74258 15.47 1.80164 15.4057 1.92918C15.2704 2.19773 15.1588 2.6976 15.125 3.58534C15.0909 4.48248 15.0618 5.32221 15.0412 5.9377C15.0309 6.24543 15.0227 6.49706 15.0171 6.67174L15.0107 6.87342L15.009 6.92608L15.0086 6.93951L15.0085 6.94289L15.0085 6.94374L15.0085 6.94395L15.0085 6.944L14.6586 6.9332L15.0085 6.94401C15.0026 7.13268 14.8483 7.28273 14.6595 7.2832C14.4708 7.28366 14.3156 7.13437 14.3089 6.94573L14.229 4.71689C14.1953 4.00252 14.0672 3.67715 13.9555 3.53255C13.8683 3.41964 13.7694 3.38847 13.6056 3.38847C13.5391 3.38847 13.5005 3.40034 13.4708 3.41888C13.4402 3.43797 13.3862 3.48469 13.326 3.61059C13.1982 3.87795 13.0856 4.4088 13.0619 5.4268L13.0789 11.5598C13.0813 11.6108 13.0836 11.6612 13.0858 11.7112C13.118 12.4148 13.1453 13.014 13.2122 13.5367C13.2838 14.0964 13.3978 14.5391 13.5932 14.8995C13.5963 14.9053 13.5993 14.9112 13.6021 14.9172C13.6547 15.0287 13.7268 15.1882 13.8106 15.3737C14.0374 15.8756 14.3504 16.568 14.5949 17.0167L19.864 17.0167C20.4116 16.0033 20.9875 15.0609 21.3605 14.4988C21.8471 13.7023 22.6329 12.0189 23.3058 10.5109C23.641 9.75986 23.945 9.0596 24.1653 8.54702C24.2754 8.29077 24.3646 8.08153 24.4261 7.93641L24.497 7.76901L24.5154 7.72541L24.5201 7.71434L24.5211 7.71181L24.5212 7.7116L24.5212 7.71158L24.5213 7.71133L24.5214 7.71116L24.5215 7.71091L24.5215 7.7109L24.5216 7.71074L24.5242 7.70408C24.5269 7.69734 24.5311 7.68639 24.5363 7.67175C24.547 7.64239 24.5618 7.59875 24.5773 7.54502C24.6089 7.43563 24.6405 7.29359 24.6485 7.14924C24.6568 7.00219 24.6391 6.87768 24.5955 6.78545C24.5576 6.70515 24.4925 6.63125 24.3543 6.58285C24.2682 6.55268 24.1733 6.55875 24.0558 6.61176C23.933 6.66717 23.8043 6.76659 23.6809 6.8905C23.5596 7.01227 23.4567 7.14407 23.3834 7.24735C23.3471 7.29846 23.3189 7.34134 23.3001 7.37078C23.2908 7.38547 23.2839 7.39674 23.2795 7.40391L23.2749 7.4115L23.2748 7.41175L21.7726 10.0476C21.694 10.1856 21.5323 10.2533 21.3789 10.2126C21.2254 10.172 21.1185 10.0331 21.1185 9.87432L21.1185 4.36203C21.1185 3.68819 21.0492 3.20001 20.9384 2.89113C20.829 2.58595 20.7244 2.55941 20.6956 2.55685C20.6054 2.55862 20.5294 2.59487 20.4454 2.72219C20.349 2.8684 20.2665 3.10488 20.2003 3.4397L19.7142 6.98079C19.6895 7.16121 19.5305 7.29249 19.3487 7.28269C19.1668 7.2729 19.0229 7.1253 19.0176 6.94327L19.3675 6.9332L19.0176 6.94325L19.0176 6.94317L19.0176 6.94283L19.0176 6.94143L19.0174 6.9358L19.0168 6.91353L19.0141 6.82747C19.0118 6.7526 19.0084 6.64401 19.0039 6.50934C18.9948 6.23996 18.9815 5.8664 18.9644 5.44971C18.93 4.61418 18.8807 3.6127 18.8203 2.92871C18.7586 2.22881 18.6863 1.69917 18.547 1.34704C18.4793 1.17616 18.406 1.07459 18.3348 1.01603C18.2706 0.963206 18.1878 0.928153 18.0575 0.928153C17.913 0.928153 17.8268 0.961892 17.7683 1.00363C17.7068 1.04747 17.6454 1.12207 17.5893 1.25262C17.4697 1.53051 17.4153 1.95541 17.3696 2.54199C17.3254 3.1088 17.2831 4.20506 17.2519 5.16754C17.2363 5.64706 17.2235 6.0907 17.2146 6.41449C17.2101 6.57637 17.2067 6.70826 17.2043 6.79964L17.2016 6.90502L17.2009 6.93247L17.2008 6.93945L17.2007 6.9412L17.2007 6.94163L17.2007 6.94174L16.8508 6.9332ZM16.8508 6.9332L16.5012 6.94907C16.5097 7.13742 16.6659 7.28515 16.8545 7.28318C17.043 7.28121 17.1961 7.13025 17.2007 6.94177L16.8508 6.9332Z" fill="white" stroke="#363A45" stroke-width="0.7" stroke-linejoin="round"/>
<path d="M12.5502 15.4937C12.3863 15.5916 12.2505 15.6716 12.1514 15.7296C12.0487 15.6659 11.9061 15.5769 11.7336 15.4681C11.366 15.236 10.8631 14.9139 10.3221 14.5534C9.22922 13.8252 8.01619 12.9636 7.42593 12.3723C7.4183 12.3646 7.4103 12.3573 7.40198 12.3504C7.00264 12.0185 6.67871 11.6077 6.45094 11.1441C6.22441 10.6831 6.09793 10.18 6.07959 9.66671C6.09207 8.99664 6.31034 8.34415 6.70603 7.79522C7.10337 7.24399 7.66067 6.82346 8.30388 6.58936C8.94706 6.35527 9.64561 6.31868 10.3069 6.48409C10.9681 6.6495 11.561 7.00911 12.0071 7.51519C12.0731 7.59016 12.1688 7.63361 12.2698 7.63454C12.3708 7.63547 12.4675 7.5938 12.5354 7.52007C12.9965 7.01932 13.6002 6.66727 14.2663 6.51041C14.9324 6.35356 15.6294 6.39931 16.2649 6.64125C16.9005 6.88318 17.4448 7.30995 17.8259 7.86504C18.2051 8.41737 18.405 9.07101 18.3992 9.74026C18.3613 10.253 18.218 10.7538 17.9779 11.2122C17.7361 11.6736 17.4014 12.0821 16.9942 12.4127C16.9872 12.4184 16.9805 12.4243 16.974 12.4305C16.2726 13.0949 15.0313 13.9426 13.9438 14.6348C13.4043 14.9782 12.9098 15.2788 12.5502 15.4937Z" fill="#00C65E" stroke="white" stroke-width="0.7" stroke-linejoin="round"/>
</svg>
